<svg aria-hidden="true" version="1.1" xmlns="http://www.w3.org/2000/svg" xmlns:xlink="http://www.w3.org/1999/xlink">
<defs>
<symbol id="icon-Checkbox-1" viewBox="0 0 32 32">
<path  d="M22.92 8.98c0.319-0.277 0.739-0.446 1.198-0.446 0.008 0 0.015 0 0.023 0h-0.001c0.001 0 0.001 0 0.002 0 0.466 0 0.891 0.174 1.214 0.462l-0.002-0.002c0.309 0.275 0.508 0.669 0.524 1.109l0 0.003c0 0.010 0 0.022 0 0.033 0 0.431-0.176 0.82-0.46 1.101l-0 0-9.31 10.748c-0.159 0.157-0.347 0.284-0.556 0.372l-0.012 0.004c-0.209 0.088-0.453 0.139-0.708 0.139-0.478 0-0.915-0.179-1.246-0.474l0.002 0.002-6.174-5.698c-0.168-0.143-0.304-0.318-0.402-0.515l-0.004-0.009c-0.097-0.194-0.154-0.423-0.154-0.664 0-0.452 0.198-0.857 0.512-1.134l0.002-0.001c0.164-0.151 0.358-0.271 0.572-0.352l0.012-0.004c0.195-0.075 0.42-0.118 0.656-0.118 0.257 0 0.502 0.052 0.725 0.145l-0.012-0.005c0.221 0.091 0.409 0.218 0.568 0.374l-0-0 4.886 4.508 8.104-9.53c0.015-0.017 0.030-0.033 0.046-0.048l-0.002-0z"></path>
<path  d="M4 1h24c1.657 0 3 1.343 3 3v24c0 1.657-1.343 3-3 3h-24c-1.657 0-3-1.343-3-3v-24c0-1.657 1.343-3 3-3z"></path>
</symbol>
</defs>
</svg>
