<svg xmlns="http://www.w3.org/2000/svg" aria-hidden="true"><defs><symbol id="icon-Vector-1" viewBox="0 0 40 32"><path d="M33.84 1.96a3.648 3.648 0 0 1 2.396-.892h.046-.002.003c.932 0 1.783.349 2.429.923l-.004-.003a3.116 3.116 0 0 1 1.048 2.218v.006l.001.067c0 .861-.352 1.64-.92 2.201l-18.62 21.496a3.498 3.498 0 0 1-1.113.743l-.023.009a3.688 3.688 0 0 1-1.418.279 3.737 3.737 0 0 1-2.489-.946l.004.003-12.348-11.4a3.273 3.273 0 0 1-.804-1.029l-.009-.019a2.982 2.982 0 0 1-.308-1.329c0-.903.396-1.714 1.024-2.268l.003-.003a3.536 3.536 0 0 1 1.144-.704l.024-.008c.39-.15.841-.236 1.312-.236.514 0 1.003.103 1.449.289l-.025-.009c.441.183.819.436 1.136.748l9.772 9.016 16.208-19.06a.977.977 0 0 1 .091-.091l.001-.001h-.008z"/></symbol></defs></svg>